<?xml version="1.0" encoding="UTF-8" standalone="no"?>
<svg width="868px" height="1522px" viewBox="0 0 868 1522" version="1.1" xmlns="http://www.w3.org/2000/svg" xmlns:xlink="http://www.w3.org/1999/xlink" xmlns:sketch="http://www.bohemiancoding.com/sketch/ns">
    <!-- Generator: Sketch 3.4.2 (15855) - http://www.bohemiancoding.com/sketch -->
    <title>Group</title>
    <desc>Created with Sketch.</desc>
    <defs>
        <rect id="path-1" x="0" y="0" width="1409" height="1522"></rect>
    </defs>
    <g id="Page-1" stroke="none" stroke-width="1" fill="none" fill-rule="evenodd" sketch:type="MSPage">
        <g id="Group" sketch:type="MSLayerGroup" transform="translate(-541.000000, 0.000000)">
            <mask id="mask-2" sketch:name="Mask" fill="white">
                <use xlink:href="#path-1"></use>
            </mask>
            <use id="Mask" sketch:type="MSShapeGroup" xlink:href="#path-1"></use>
            <g mask="url(#mask-2)" id="Shape" fill-opacity="0.05" fill="#000000" sketch:type="MSShapeGroup">
                <g transform="translate(1409.482590, 761.297137) scale(1, -1) translate(-1409.482590, -761.297137) translate(540.982590, -238.702863)">
                    <path d="M434.6,1268.5 C197.6,866.6 2.9,536.3 1.9,534.5 L-2.03864703e-13,531.4 L149.1,266.1 C231.1,120.2 298.5,0.4 298.9,0.1 C299.3,-0.3 428.3,73.3 585.6,163.8 C742.9,254.2 871.8,328.2 872.1,328.2 C872.4,328.2 1000.2,254.9 1156.1,165.3 C1366.1,44.6 1439.9,2.7 1440.7,3.6 C1441.3,4.2 1508,121.6 1589,264.4 L1736.2,524.2 L1302.6,1258.9 C1064,1663.1 868.1,1995 867.2,1996.5 L865.4,1999.3 L434.6,1268.5 L434.6,1268.5 Z M986,1651.9 L1106.1,1448.2 L990,1249.9 C926.1,1140.9 873.4,1051.1 872.8,1050.4 C872.1,1049.5 838.6,1107.3 752.9,1257.3 L634,1465.4 L749.2,1661.3 C812.6,1769.1 864.8,1856.9 865.2,1856.5 C865.6,1856 920,1764 986,1651.9 L986,1651.9 Z M696.6,1238.7 C749.2,1149.1 793.3,1074.2 794.4,1072.3 C795.5,1070.4 796.1,1069.1 795.5,1069.4 C786,1075 503.5,1243.5 503.2,1243.7 C503,1244 589.8,1391 596.8,1402.1 C598.1,1404 598.5,1404.2 599.6,1403.1 C600.3,1402.3 643.9,1328.4 696.6,1238.7 L696.6,1238.7 Z M1187.6,1312.9 C1212.7,1270.6 1233.1,1235.9 1232.9,1235.7 C1231.9,1234.6 955.9,1077.1 955.6,1077.3 C955.4,1077.5 992.8,1141.4 1038.7,1219.2 C1084.6,1297 1126.2,1367.6 1131.2,1376.1 C1136.2,1384.5 1140.6,1391 1141.1,1390.6 C1141.5,1390.1 1162.5,1355.1 1187.6,1312.9 L1187.6,1312.9 Z M646.4,1088.2 C736.4,1036.8 809.7,994.4 809.3,994 C808,992.7 130.8,612.1 130.5,612.5 C130.3,612.7 206.5,742.5 299.8,901 L469.4,1189.2 L476.1,1185.4 C479.8,1183.4 556.4,1139.6 646.4,1088.2 L646.4,1088.2 Z M1432.6,897.2 C1525.7,739.1 1601.7,609.6 1601.6,609.4 C1601.4,609.2 1449.9,695.6 1264.8,801.4 C1079.7,907.2 928.6,994.1 929,994.5 C931,996.5 1260.7,1185 1262,1184.9 C1262.7,1184.8 1339.5,1055.3 1432.6,897.2 L1432.6,897.2 Z M988.7,731.9 C1054,618.6 1103,532.7 1102.5,532.2 C1102,531.7 1049.6,501.8 986.1,465.7 C902.2,418 870.2,400.3 869,400.9 C868.1,401.3 815.6,431.6 752.3,468.2 C642.5,531.6 637.2,534.7 638.4,536.7 C639.2,537.8 692.1,627.2 756.1,735.4 C820.1,843.7 872.8,931.9 873.2,931.4 C873.6,931 925.6,841.2 988.7,731.9 L988.7,731.9 Z M791.2,913.5 C789.6,910.8 682.9,729.8 554.1,511.2 C425.3,292.6 319.1,112.4 318.2,110.9 L316.4,108.1 L202.1,311.9 C139.3,423.9 88.2,515.8 88.7,516 C89.2,516.2 247.8,606.7 441.1,717.2 C634.4,827.6 792.9,918 793.3,918.1 C793.7,918.2 792.8,916.1 791.2,913.5 L791.2,913.5 Z M1305.8,710.5 C1494.6,602.9 1649.1,514.4 1649.1,513.9 C1649.1,513.3 1597.5,421.1 1534.4,309 C1439.9,140.9 1419.6,105.4 1418.8,106.9 C1417.1,110 983.5,867.6 972,887.5 C966.1,897.8 961.5,906.2 961.8,906.2 C962.2,906.2 1116.9,818.1 1305.8,710.5 L1305.8,710.5 Z M707.4,420.4 C761.8,389.4 805.9,363.6 805.4,363.2 C803.8,361.7 390,119 389.6,119.3 C389.4,119.6 454.2,228.4 575.7,431.4 C602.9,476.8 604.4,479.1 606.5,478 C607.6,477.4 653.1,451.5 707.4,420.4 L707.4,420.4 Z M1237.4,303.5 C1292.2,207.5 1337,128.7 1336.8,128.6 C1336.6,128.4 1245.2,180.5 1133.8,244.4 C1022.3,308.3 931.3,360.7 931.5,360.9 C932.5,361.9 1135.8,478.1 1136.6,478.1 C1137.2,478.2 1182.5,399.6 1237.4,303.5 L1237.4,303.5 Z"></path>
                </g>
            </g>
        </g>
    </g>
</svg>